<svg width="64" height="64" viewBox="0 0 64 64" fill="none" xmlns="http://www.w3.org/2000/svg">
<path fill-rule="evenodd" clip-rule="evenodd" d="M32 2C15.4315 2 2 15.4315 2 32C2 48.5685 15.4315 62 32 62C48.5685 62 62 48.5685 62 32C62 15.4315 48.5685 2 32 2ZM8.38992 21.7V43H12.5299V35.86H16.6699L21.0499 43H25.6099L20.7499 34.99C21.5299 34.65 22.2099 34.17 22.7899 33.55C23.3699 32.93 23.8099 32.21 24.1099 31.39C24.4299 30.55 24.5899 29.68 24.5899 28.78C24.5899 27.9 24.4199 27.04 24.0799 26.2C23.7599 25.36 23.2899 24.6 22.6699 23.92C22.0699 23.24 21.3499 22.7 20.5099 22.3C19.6899 21.9 18.7899 21.7 17.8099 21.7H8.38992ZM17.7199 32.23H12.5299V25.33H17.5399C18.0399 25.33 18.4999 25.48 18.9199 25.78C19.3599 26.08 19.7199 26.49 19.9999 27.01C20.2799 27.51 20.4199 28.1 20.4199 28.78C20.4199 29.42 20.2999 30 20.0599 30.52C19.8199 31.04 19.4999 31.46 19.0999 31.78C18.6999 32.08 18.2399 32.23 17.7199 32.23ZM38.768 21.76H34.928L38.558 31.45L35.918 38.23L29.858 21.7H25.418L33.908 43H37.478L41.198 34.06L44.948 43H48.518L57.038 21.7H52.538L46.508 38.23L43.808 31.45L47.468 21.76H43.658L41.198 28.81L38.768 21.76Z" fill="#9D65FF"/>
</svg>
