<svg width="1000" height="300" viewBox="0 0 1000 300" fill="none" xmlns="http://www.w3.org/2000/svg">
<g filter="url(#filter0_d_113_87)">
<path d="M146.315 202V95.5H193.415C198.315 95.5 202.815 96.5 206.915 98.5C211.115 100.5 214.715 103.2 217.715 106.6C220.815 110 223.165 113.8 224.765 118C226.465 122.2 227.315 126.5 227.315 130.9C227.315 135.4 226.515 139.75 224.915 143.95C223.415 148.05 221.215 151.65 218.315 154.75C215.415 157.85 212.015 160.25 208.115 161.95L232.415 202H209.615L187.715 166.3H167.015V202H146.315ZM167.015 148.15H192.965C195.565 148.15 197.865 147.4 199.865 145.9C201.865 144.3 203.465 142.2 204.665 139.6C205.865 137 206.465 134.1 206.465 130.9C206.465 127.5 205.765 124.55 204.365 122.05C202.965 119.45 201.165 117.4 198.965 115.9C196.865 114.4 194.565 113.65 192.065 113.65H167.015V148.15ZM277.934 203.5C271.634 203.5 265.934 202.45 260.834 200.35C255.734 198.15 251.384 195.2 247.784 191.5C244.184 187.7 241.384 183.4 239.384 178.6C237.484 173.7 236.534 168.55 236.534 163.15C236.534 155.65 238.184 148.8 241.484 142.6C244.884 136.4 249.684 131.45 255.884 127.75C262.184 123.95 269.584 122.05 278.084 122.05C286.684 122.05 294.034 123.95 300.134 127.75C306.234 131.45 310.884 136.4 314.084 142.6C317.384 148.7 319.034 155.3 319.034 162.4C319.034 163.6 318.984 164.85 318.884 166.15C318.784 167.35 318.684 168.35 318.584 169.15H257.834C258.234 173.15 259.384 176.65 261.284 179.65C263.284 182.65 265.784 184.95 268.784 186.55C271.884 188.05 275.184 188.8 278.684 188.8C282.684 188.8 286.434 187.85 289.934 185.95C293.534 183.95 295.984 181.35 297.284 178.15L314.534 182.95C312.634 186.95 309.884 190.5 306.284 193.6C302.784 196.7 298.634 199.15 293.834 200.95C289.034 202.65 283.734 203.5 277.934 203.5ZM257.384 156.4H298.484C298.084 152.4 296.934 148.95 295.034 146.05C293.234 143.05 290.834 140.75 287.834 139.15C284.834 137.45 281.484 136.6 277.784 136.6C274.184 136.6 270.884 137.45 267.884 139.15C264.984 140.75 262.584 143.05 260.684 146.05C258.884 148.95 257.784 152.4 257.384 156.4ZM378.379 203.5C372.279 203.5 366.879 202.15 362.179 199.45C357.579 196.65 353.979 192.9 351.379 188.2V233.95H331.279V123.4H348.829V136.9C351.829 132.3 355.629 128.7 360.229 126.1C364.829 123.4 370.079 122.05 375.979 122.05C381.279 122.05 386.129 123.1 390.529 125.2C395.029 127.3 398.929 130.25 402.229 134.05C405.529 137.75 408.079 142.05 409.879 146.95C411.779 151.75 412.729 156.95 412.729 162.55C412.729 170.15 411.229 177.05 408.229 183.25C405.329 189.45 401.279 194.4 396.079 198.1C390.979 201.7 385.079 203.5 378.379 203.5ZM371.629 186.4C374.729 186.4 377.529 185.75 380.029 184.45C382.529 183.15 384.679 181.4 386.479 179.2C388.379 176.9 389.779 174.35 390.679 171.55C391.679 168.65 392.179 165.65 392.179 162.55C392.179 159.25 391.629 156.2 390.529 153.4C389.529 150.6 388.029 148.15 386.029 146.05C384.029 143.85 381.679 142.15 378.979 140.95C376.379 139.75 373.529 139.15 370.429 139.15C368.529 139.15 366.579 139.5 364.579 140.2C362.679 140.8 360.829 141.7 359.029 142.9C357.229 144.1 355.629 145.5 354.229 147.1C352.929 148.7 351.979 150.45 351.379 152.35V170.8C352.579 173.7 354.179 176.35 356.179 178.75C358.279 181.15 360.679 183.05 363.379 184.45C366.079 185.75 368.829 186.4 371.629 186.4ZM462.647 203.5C456.247 203.5 450.497 202.45 445.397 200.35C440.297 198.15 435.947 195.15 432.347 191.35C428.847 187.55 426.147 183.2 424.247 178.3C422.347 173.4 421.397 168.25 421.397 162.85C421.397 157.35 422.347 152.15 424.247 147.25C426.147 142.35 428.847 138 432.347 134.2C435.947 130.4 440.297 127.45 445.397 125.35C450.497 123.15 456.247 122.05 462.647 122.05C469.047 122.05 474.747 123.15 479.747 125.35C484.847 127.45 489.197 130.4 492.797 134.2C496.397 138 499.097 142.35 500.897 147.25C502.797 152.15 503.747 157.35 503.747 162.85C503.747 168.25 502.797 173.4 500.897 178.3C499.097 183.2 496.397 187.55 492.797 191.35C489.297 195.15 484.997 198.15 479.897 200.35C474.797 202.45 469.047 203.5 462.647 203.5ZM442.097 162.85C442.097 167.45 442.997 171.55 444.797 175.15C446.597 178.65 449.047 181.4 452.147 183.4C455.247 185.4 458.747 186.4 462.647 186.4C466.447 186.4 469.897 185.4 472.997 183.4C476.097 181.3 478.547 178.5 480.347 175C482.247 171.4 483.197 167.3 483.197 162.7C483.197 158.2 482.247 154.15 480.347 150.55C478.547 146.95 476.097 144.15 472.997 142.15C469.897 140.15 466.447 139.15 462.647 139.15C458.747 139.15 455.247 140.2 452.147 142.3C449.047 144.3 446.597 147.1 444.797 150.7C442.997 154.2 442.097 158.25 442.097 162.85ZM545.021 95.8H564.221L576.371 131.05L588.671 95.8H607.721L589.421 144.25L602.921 178.15L633.071 95.5H655.571L612.971 202H595.121L576.371 157.3L557.771 202H539.921L497.471 95.5H519.671L549.971 178.15L563.171 144.25L545.021 95.8ZM650.488 178.75C650.488 173.65 651.888 169.2 654.688 165.4C657.588 161.5 661.588 158.5 666.688 156.4C671.788 154.3 677.638 153.25 684.238 153.25C687.538 153.25 690.888 153.5 694.288 154C697.688 154.5 700.638 155.3 703.138 156.4V152.2C703.138 147.2 701.638 143.35 698.638 140.65C695.738 137.95 691.388 136.6 685.588 136.6C681.288 136.6 677.188 137.35 673.288 138.85C669.388 140.35 665.288 142.55 660.988 145.45L654.538 132.25C659.738 128.85 665.038 126.3 670.438 124.6C675.938 122.9 681.688 122.05 687.688 122.05C698.888 122.05 707.588 124.85 713.788 130.45C720.088 136.05 723.238 144.05 723.238 154.45V179.5C723.238 181.6 723.588 183.1 724.288 184C725.088 184.9 726.338 185.45 728.038 185.65V202C726.238 202.3 724.588 202.55 723.088 202.75C721.688 202.95 720.488 203.05 719.488 203.05C715.488 203.05 712.438 202.15 710.338 200.35C708.338 198.55 707.088 196.35 706.588 193.75L706.138 189.7C702.738 194.1 698.488 197.5 693.388 199.9C688.288 202.3 683.088 203.5 677.788 203.5C672.588 203.5 667.888 202.45 663.688 200.35C659.588 198.15 656.338 195.2 653.938 191.5C651.638 187.7 650.488 183.45 650.488 178.75ZM699.388 182.8C700.488 181.6 701.388 180.4 702.088 179.2C702.788 178 703.138 176.9 703.138 175.9V167.95C700.738 166.95 698.138 166.2 695.338 165.7C692.538 165.1 689.888 164.8 687.388 164.8C682.188 164.8 677.888 165.95 674.488 168.25C671.188 170.45 669.538 173.4 669.538 177.1C669.538 179.1 670.088 181 671.188 182.8C672.288 184.6 673.888 186.05 675.988 187.15C678.088 188.25 680.588 188.8 683.488 188.8C686.488 188.8 689.438 188.25 692.338 187.15C695.238 185.95 697.588 184.5 699.388 182.8ZM788.821 140.8C782.721 140.8 777.271 142 772.471 144.4C767.671 146.7 764.221 150.05 762.121 154.45V202H742.021V123.4H760.471V140.2C763.271 134.8 766.821 130.55 771.121 127.45C775.421 124.35 779.971 122.65 784.771 122.35C785.871 122.35 786.721 122.35 787.321 122.35C787.921 122.35 788.421 122.4 788.821 122.5V140.8ZM828.979 203.5C822.279 203.5 815.879 202.4 809.779 200.2C803.679 198 798.429 194.75 794.029 190.45L801.229 177.4C805.929 181.2 810.529 184 815.029 185.8C819.629 187.6 824.029 188.5 828.229 188.5C832.129 188.5 835.229 187.8 837.529 186.4C839.929 185 841.129 182.9 841.129 180.1C841.129 178.2 840.479 176.75 839.179 175.75C837.879 174.65 835.979 173.7 833.479 172.9C831.079 172.1 828.129 171.2 824.629 170.2C818.829 168.3 813.979 166.45 810.079 164.65C806.179 162.85 803.229 160.6 801.229 157.9C799.329 155.1 798.379 151.55 798.379 147.25C798.379 142.05 799.679 137.6 802.279 133.9C804.979 130.1 808.679 127.15 813.379 125.05C818.179 122.95 823.779 121.9 830.179 121.9C835.779 121.9 841.079 122.8 846.079 124.6C851.079 126.3 855.629 129.1 859.729 133L851.629 145.75C847.629 142.65 843.829 140.4 840.229 139C836.629 137.5 832.979 136.75 829.279 136.75C827.179 136.75 825.179 137 823.279 137.5C821.479 138 819.979 138.85 818.779 140.05C817.679 141.15 817.129 142.75 817.129 144.85C817.129 146.75 817.629 148.25 818.629 149.35C819.729 150.35 821.329 151.25 823.429 152.05C825.629 152.85 828.279 153.75 831.379 154.75C837.679 156.55 842.979 158.4 847.279 160.3C851.679 162.2 854.979 164.55 857.179 167.35C859.379 170.05 860.479 173.8 860.479 178.6C860.479 186.4 857.629 192.5 851.929 196.9C846.229 201.3 838.579 203.5 828.979 203.5Z" fill="white"/>
</g>
<defs>
<filter id="filter0_d_113_87" x="146.315" y="95.5" width="720.164" height="144.45" filterUnits="userSpaceOnUse" color-interpolation-filters="sRGB">
<feFlood flood-opacity="0" result="BackgroundImageFix"/>
<feColorMatrix in="SourceAlpha" type="matrix" values="0 0 0 0 0 0 0 0 0 0 0 0 0 0 0 0 0 0 127 0" result="hardAlpha"/>
<feOffset dx="6" dy="6"/>
<feComposite in2="hardAlpha" operator="out"/>
<feColorMatrix type="matrix" values="0 0 0 0 0.615686 0 0 0 0 0.396078 0 0 0 0 1 0 0 0 1 0"/>
<feBlend mode="normal" in2="BackgroundImageFix" result="effect1_dropShadow_113_87"/>
<feBlend mode="normal" in="SourceGraphic" in2="effect1_dropShadow_113_87" result="shape"/>
</filter>
</defs>
</svg>
